# xmcd
#
# Track frame offsets:
#	150
#	16229
#	28669
#	43387
#	59069
#	75985
#	90946
#	101355
#	115650
#	136248
#	152955
#	168503
#	182689
#	202705
#	215681
#	232451
#	246788
#	262615
#	280589
#	300052
#	315295
#
# Disc length: 4395 seconds
#
# Revision: 2
# Processed by: cddbd v1.5.2PL0 Copyright (c) Steve Scherf et al.
# Submitted via: EasyCDDAExtractor 15.3.0.1
#
DISCID=07112915
DTITLE=The Music Of Nashville - Season 2, Volume 2
DYEAR=2014
DGENRE=Country
TTITLE0=Connie Britton, Hayden Panettiere - He Ain't Gonna Change
TTITLE1=Sam Palladio, Chaley Rose, Jonathan Jackson - I Ain't Leavin' Without 
TTITLE1=Your Love
TTITLE2=Charles Esten, Lennon and Maisy - Believing
TTITLE3=Chris Carmack - Hurtin' On Me
TTITLE4=Sam Palladio, Clare Bowen - Lately
TTITLE5=Connie Britton - Wrong For The Right Reasons
TTITLE6=Hayden Panettiere, Jonathan Jackson - Everything I'll Ever Need
TTITLE7=Lennon and Maisy - Joy Parade
TTITLE8=Clare Bowen - Come Find Me
TTITLE9=Will Chase, Chris Carmack, Charles Esten - It's On Tonight
TTITLE10=Sam Palladio, Jonathan Jackson, Chaley Rose - Hennessee
TTITLE11=Aubrey Peeples - It All Slows Down
TTITLE12=Chris Carmack - Is That Who I Am
TTITLE13=Connie Britton - This Time
TTITLE14=Clare Bowen - Black Roses
TTITLE15=Hayden Panettiere - Don't Put Dirt On My Grave Just Yet
TTITLE16=Connie Britton, Charles Esten, Lennon and Maisy - A Life That's Good
TTITLE17=Chaley Rose - Carry You Home
TTITLE18=Chris Carmack - Then I Was Loved By You
TTITLE19=Clare Bowen - Falling
TTITLE20=Hayden Panettiere - Don't Put Dirt On My Grave Just Yet (Orchestral V
TTITLE20=ersion)
EXTD=
EXTT0=
EXTT1=
EXTT2=
EXTT3=
EXTT4=
EXTT5=
EXTT6=
EXTT7=
EXTT8=
EXTT9=
EXTT10=
EXTT11=
EXTT12=
EXTT13=
EXTT14=
EXTT15=
EXTT16=
EXTT17=
EXTT18=
EXTT19=
EXTT20=
PLAYORDER=
